
<?xml version="1.0" encoding="UTF-8" standalone="no"?>
<!-- Generator: Adobe Illustrator 16.0.0, SVG Export Plug-In . SVG Version: 6.00 Build 0)  -->

<svg
   xmlns:dc="http://purl.org/dc/elements/1.1/"
   xmlns:cc="http://creativecommons.org/ns#"
   xmlns:rdf="http://www.w3.org/1999/02/22-rdf-syntax-ns#"
   xmlns:svg="http://www.w3.org/2000/svg"
   xmlns="http://www.w3.org/2000/svg"
   xmlns:xlink="http://www.w3.org/1999/xlink"
   xmlns:sodipodi="http://sodipodi.sourceforge.net/DTD/sodipodi-0.dtd"
   xmlns:inkscape="http://www.inkscape.org/namespaces/inkscape"
   version="1.1"
   id="圖層_1"
   x="0px"
   y="0px"
   width="200"
   height="227.6432"
   viewBox="0 0 199.99999 227.64321"
   enable-background="new 0 0 651.968 898.582"
   xml:space="preserve"
   inkscape:version="0.48.4 r9939"
   sodipodi:docname="消防徽.svg"><metadata
   id="metadata115"><rdf:RDF><cc:Work
       rdf:about=""><dc:format>image/svg+xml</dc:format><dc:type
         rdf:resource="http://purl.org/dc/dcmitype/StillImage" /></cc:Work></rdf:RDF></metadata><defs
   id="defs113">
	
	

		<defs
   id="defs15">
			<rect
   id="SVGID_3_"
   x="19.841999"
   y="19.841999"
   width="612.284"
   height="858.89801" />
		</defs>
		<clipPath
   id="SVGID_4_">
			<use
   xlink:href="#SVGID_3_"
   overflow="visible"
   id="use19"
   style="overflow:visible"
   x="0"
   y="0"
   width="651.96802"
   height="898.58197" />
		</clipPath>
		
	
		<defs
   id="defs7">
			<rect
   id="SVGID_1_"
   x="19.841999"
   y="19.841999"
   width="612.284"
   height="858.89801" />
		</defs>
		<clipPath
   id="SVGID_2_">
			<use
   xlink:href="#SVGID_1_"
   overflow="visible"
   id="use11"
   style="overflow:visible"
   x="0"
   y="0"
   width="651.96802"
   height="898.58197" />
		</clipPath>
	
			
		
				<defs
   id="defs25">
					<rect
   id="SVGID_5_"
   x="242.80299"
   y="589.724"
   width="164.86099"
   height="187.37199" />
				</defs>
				<clipPath
   id="SVGID_6_">
					<use
   xlink:href="#SVGID_5_"
   overflow="visible"
   id="use29"
   style="overflow:visible"
   x="0"
   y="0"
   width="651.96802"
   height="898.58197" />
				</clipPath>
				
			
					<defs
   id="defs33">
						<rect
   height="185.37199"
   width="162.86099"
   y="590.724"
   x="243.80299"
   id="SVGID_7_" />
					</defs>
					<clipPath
   id="SVGID_8_">
						<use
   height="898.58197"
   width="651.96802"
   y="0"
   x="0"
   style="overflow:visible"
   id="use37"
   overflow="visible"
   xlink:href="#SVGID_7_" />
					</clipPath>
					
					
					
					
					
					
					
					
					
					
					
					
					
					
					
					
					
					
					
					
					
					
					
					
					
					
					
					
					
					
					
					
					
					
					
					
				</defs><sodipodi:namedview
   pagecolor="#ffffff"
   bordercolor="#666666"
   borderopacity="1"
   objecttolerance="10"
   gridtolerance="10"
   guidetolerance="10"
   inkscape:pageopacity="0"
   inkscape:pageshadow="2"
   inkscape:window-width="1920"
   inkscape:window-height="1017"
   id="namedview111"
   showgrid="false"
   fit-margin-top="0"
   fit-margin-left="0"
   fit-margin-right="0"
   fit-margin-bottom="0"
   inkscape:zoom="2.1010882"
   inkscape:cx="43.9811"
   inkscape:cy="117.38966"
   inkscape:window-x="-8"
   inkscape:window-y="-8"
   inkscape:window-maximized="1"
   inkscape:current-layer="圖層_1" />
<g
   id="g4310"
   transform="translate(-0.76692283,2.1299999e-6)"><g
     transform="translate(0.76693639,0)"
     id="g4275"><path
       style="fill:#eeda00"
       inkscape:connector-curvature="0"
       id="path39"
       d="m 270.745,673.995 c 0,0 -3.672,-13.458 -0.736,-20.07 4.286,-7.604 -4.54,-9.799 0.736,-21.557 4.408,-9.921 12.122,-14.681 20.93,-19.22 8.825,-4.544 3.803,-9.922 3.803,-9.922 0,0.969 0.132,5.885 -3.299,7.112 -6.99,2.437 -19.112,8.317 -25.975,15.417 -6.853,7.107 -10.762,15.921 -8.444,27.179 2.332,11.271 12.985,21.061 12.985,21.061"
       clip-path="url(#SVGID_8_)"
       transform="matrix(1.2280412,0,0,1.2280412,-299.40015,-725.43464)" /><path
       style="fill:#eeda00"
       inkscape:connector-curvature="0"
       id="path41"
       d="m 274.294,690.048 c 0,0 -2.327,-5.145 -3.186,-10.049 -0.855,-4.895 0,-4.768 -3.554,-8.335 -9.799,-9.426 -11.008,-17.134 -11.267,-24.466 -0.241,-7.358 -4.036,-9.808 -4.036,-9.808 0,0 0.356,5.395 -0.491,11.018 -1.349,8.938 -2.445,13.348 4.05,24.479 6.485,11.157 18.484,17.161 18.484,17.161"
       clip-path="url(#SVGID_8_)"
       transform="matrix(1.2280412,0,0,1.2280412,-299.40015,-725.43464)" /><path
       style="fill:#eeda00"
       inkscape:connector-curvature="0"
       id="path43"
       d="m 246.625,663.838 c -0.868,4.404 -1.849,12.494 7.217,22.402 9.067,9.938 17.516,13.962 26.334,16.284 0,0 -2.7,-2.805 -4.049,-5.986 -1.342,-3.194 -0.852,-4.54 -5.873,-7.463 -5.022,-2.945 -12.244,-9.927 -14.693,-14.344 -2.446,-4.395 -3.309,-5.876 -4.168,-9.176 -0.859,-3.318 -1.836,-6.727 -1.836,-6.727 -2.2,-5.391 -4.527,-6.876 -4.527,-6.876 0,0 2.445,7.482 1.595,11.886"
       clip-path="url(#SVGID_8_)"
       transform="matrix(1.2280412,0,0,1.2280412,-299.40015,-725.43464)" /><path
       style="fill:#eeda00"
       inkscape:connector-curvature="0"
       id="path45"
       d="m 268.054,706.933 c 8.931,5.398 17.871,4.417 17.871,4.417 -0.973,-0.368 -3.186,-2.327 -4.646,-4.417 -1.481,-2.068 -2.462,-3.536 -8.212,-5.618 -5.749,-2.081 -15.539,-8.444 -20.692,-14.948 -5.146,-6.49 -8.572,-6.748 -8.572,-6.748 1.836,0.88 4.285,4.794 6.985,11.279 2.69,6.491 8.326,10.654 17.266,16.035"
       clip-path="url(#SVGID_8_)"
       transform="matrix(1.2280412,0,0,1.2280412,-299.40015,-725.43464)" /><path
       style="fill:#eeda00"
       inkscape:connector-curvature="0"
       id="path47"
       d="m 271.967,710.018 c -5.881,-1.854 -13.225,-6.621 -13.225,-6.621 1.836,1.1 7.064,7.73 8.812,9.539 3.191,3.327 6.004,4.536 14.943,7.723 8.936,3.186 12.736,1.213 12.736,1.213 -1.109,-0.363 -3.8,-2.199 -5.145,-3.409 -1.346,-1.236 -3.304,-4.535 -4.404,-5.271 -1.105,-0.733 -5.272,-0.129 -13.717,-3.174"
       clip-path="url(#SVGID_8_)"
       transform="matrix(1.2280412,0,0,1.2280412,-299.40015,-725.43464)" /><path
       style="fill:#eeda00"
       inkscape:connector-curvature="0"
       id="path49"
       d="m 293.396,728.247 c 7.831,1.224 13.108,0 16.775,7.586 0,0 0.978,-5.136 -6.617,-10.995 -6.367,-4.548 -10.767,1.45 -19.588,-2.821 0,0 1.591,5.013 9.43,6.23"
       clip-path="url(#SVGID_8_)"
       transform="matrix(1.2280412,0,0,1.2280412,-299.40015,-725.43464)" /><path
       style="fill:#eeda00"
       inkscape:connector-curvature="0"
       id="path51"
       d="m 297.678,717.595 c -3.791,0.368 -9.299,-3.55 -9.299,-3.55 3.295,6.614 7.954,7.227 12.48,8.191 4.54,0.985 7.722,4.549 7.722,4.549 -1.473,-3.179 -0.486,-9.918 0.245,-12.858 0.737,-2.945 4.778,-7.468 2.45,-14.207 -2.695,-7.844 -15.552,-6.991 -27.437,-21.557 -11.258,-13.476 -11.749,-24.115 -11.749,-24.115 0,0 -3.309,6.735 -0.863,16.762 5.031,17.534 21.193,24.006 21.193,24.006 -12.371,-2.322 -20.084,-18.361 -20.084,-18.361 -0.855,16.67 20.57,26.456 20.57,26.456 -6.981,-1.224 -16.648,-11.284 -16.648,-11.284 2.077,12.375 18.37,18.861 18.37,18.861 -6.012,-0.979 -13.349,-7.215 -13.349,-7.215 3.423,10.036 16.399,14.322 16.399,14.322"
       clip-path="url(#SVGID_8_)"
       transform="matrix(1.2280412,0,0,1.2280412,-299.40015,-725.43464)" /><path
       style="fill:#eeda00"
       inkscape:connector-curvature="0"
       id="path53"
       d="m 276.573,737.113 0.049,0.074 -0.049,-0.074 z"
       clip-path="url(#SVGID_8_)"
       transform="matrix(1.2280412,0,0,1.2280412,-299.40015,-725.43464)" /><path
       style="fill:#eeda00"
       inkscape:connector-curvature="0"
       id="path55"
       d="m 276.573,737.113 c -0.166,-0.302 -0.77,-1.538 -0.569,-3.957 0.254,-2.831 -0.237,-6.008 -3.178,-7.586 0,0 0.373,3.291 -0.863,3.79 0,0 0.737,-6.008 -3.426,-8.579 0,0 0.363,4.272 -1.464,4.653 0,0 1.586,-7.108 -2.699,-10.648 0,0 0.735,4.276 -1.469,4.408 0,0 2.564,-7.239 -2.326,-9.803 0,0 1.84,2.69 -0.86,4.409 0,0 1.71,-7.342 -4.408,-9.428 0,0 -3.295,6.372 3.19,9.917 0,0 -2.086,0.741 -4.286,-2.686 0,0 -1.227,5.262 5.018,8.066 0,0 -3.554,-0.23 -5.999,-3.558 0,0 -0.614,6.749 9.912,9.93 0,0 -2.567,0.987 -7.585,-2.567 0,0 -0.25,4.771 12.608,8.204 0,0 -2.446,1.595 -7.468,-0.729 0,0 0.245,4.146 7.958,4.655 6.521,0.409 7.709,1.264 7.914,1.509"
       clip-path="url(#SVGID_8_)"
       transform="matrix(1.2280412,0,0,1.2280412,-299.40015,-725.43464)" /><path
       style="fill:#eeda00"
       inkscape:connector-curvature="0"
       id="path57"
       d="m 279.562,740.001 c 0,0 2.445,1.113 4.776,1.224 0,0 -1.471,-3.664 -2.208,-7.342 -0.736,-3.667 -0.364,-7.594 -4.886,-9.188 0,0 2.555,2.454 1.573,6.862 -0.973,4.403 -0.605,7.098 0.745,8.444"
       clip-path="url(#SVGID_8_)"
       transform="matrix(1.2280412,0,0,1.2280412,-299.40015,-725.43464)" /><path
       style="fill:#eeda00"
       inkscape:connector-curvature="0"
       id="path59"
       d="m 270.254,741.114 c -0.491,-0.367 -2.454,-2.322 0,-2.459 2.445,-0.113 5.382,3.327 10.526,6.254 5.146,2.932 12.249,0.863 15.671,1.709 3.427,0.854 6.004,5.259 6.004,5.259 0.982,-6.236 -4.89,-10.53 -13.102,-9.795 -8.205,0.742 -12.245,-2.203 -14.927,-3.54 -2.7,-1.354 -9.439,-2.936 -10.785,-0.127 -1.345,2.809 2.564,2.932 3.678,3.431 1.095,0.491 4.162,2.573 4.162,2.573 0,0 0.22,-2.24 -1.227,-3.305"
       clip-path="url(#SVGID_8_)"
       transform="matrix(1.2280412,0,0,1.2280412,-299.40015,-725.43464)" /><path
       style="fill:#eeda00"
       inkscape:connector-curvature="0"
       id="path61"
       d="m 286.902,747.232 c 0,0 -4.035,0.486 -6.358,-1.346 0,0 4.158,11.266 22.646,10.54 0,10e-4 -12.494,-1.719 -16.288,-9.194"
       clip-path="url(#SVGID_8_)"
       transform="matrix(1.2280412,0,0,1.2280412,-299.40015,-725.43464)" /><path
       style="fill:#eeda00"
       inkscape:connector-curvature="0"
       id="path63"
       d="m 279.439,751.999 c -6.608,-6.606 -10.903,-4.159 -10.903,-4.159 2.568,0.138 4.777,2.324 9.185,7.343 4.409,5.024 11.508,5.889 17.389,6.007 5.877,0.132 10.289,2.69 10.289,2.69 -4.776,-8.076 -17.993,-2.937 -25.96,-11.881"
       clip-path="url(#SVGID_8_)"
       transform="matrix(1.2280412,0,0,1.2280412,-299.40015,-725.43464)" /><path
       style="fill:#eeda00"
       inkscape:connector-curvature="0"
       id="path65"
       d="m 310.913,756.426 c 6.858,0.959 9.544,2.546 13.953,7.341 0,0 0.618,-7.341 -8.441,-12.985 -6.625,-3.673 -11.884,1.354 -11.884,1.354 0,0 -0.499,3.3 6.372,4.29"
       clip-path="url(#SVGID_8_)"
       transform="matrix(1.2280412,0,0,1.2280412,-299.40015,-725.43464)" /><path
       style="fill:#eeda00"
       inkscape:connector-curvature="0"
       id="path67"
       d="m 324.252,765.716 c -2.691,-5.763 -6.986,-7.472 -13.34,-8.566 -6.371,-1.106 -8.462,1.726 -8.462,1.726 0,0 2.205,-0.631 3.922,2.068 1.972,3.323 5.145,4.655 9.676,5.631 4.527,0.982 8.204,-0.859 8.204,-0.859"
       clip-path="url(#SVGID_8_)"
       transform="matrix(1.2280412,0,0,1.2280412,-299.40015,-725.43464)" /><path
       style="fill:#eeda00"
       inkscape:connector-curvature="0"
       id="path69"
       d="m 358.779,613.148 c 8.83,4.536 16.539,9.299 20.952,19.216 5.259,11.762 -3.554,13.957 0.729,21.561 2.944,6.613 -0.729,20.07 -0.729,20.07 0,0 10.648,-9.79 12.976,-21.061 2.336,-11.258 -1.591,-20.07 -8.448,-27.179 -6.854,-7.1 -18.989,-12.98 -25.965,-15.421 -3.428,-1.223 -3.31,-6.14 -3.31,-7.107 0,10e-4 -5.017,5.377 3.795,9.921"
       clip-path="url(#SVGID_8_)"
       transform="matrix(1.2280412,0,0,1.2280412,-299.40015,-725.43464)" /><path
       style="fill:#eeda00"
       inkscape:connector-curvature="0"
       id="path71"
       d="m 382.904,671.664 c -3.55,3.567 -2.683,3.449 -3.55,8.335 -0.846,4.904 -3.178,10.049 -3.178,10.049 0,0 12.003,-6.004 18.484,-17.16 6.491,-11.132 5.404,-15.54 4.044,-24.479 -0.84,-5.619 -0.481,-11.017 -0.481,-11.017 0,0 -3.803,2.448 -4.049,9.807 -0.244,7.33 -1.467,15.039 -11.27,24.465"
       clip-path="url(#SVGID_8_)"
       transform="matrix(1.2280412,0,0,1.2280412,-299.40015,-725.43464)" /><path
       style="fill:#eeda00"
       inkscape:connector-curvature="0"
       id="path73"
       d="m 394.911,674.732 c -2.454,4.417 -9.676,11.397 -14.688,14.343 -5.023,2.923 -4.54,4.268 -5.882,7.463 -1.349,3.181 -4.049,5.986 -4.049,5.986 8.817,-2.323 17.267,-6.347 26.337,-16.284 9.063,-9.909 8.072,-17.998 7.223,-22.402 -0.859,-4.404 1.595,-11.885 1.595,-11.885 0,0 -2.33,1.486 -4.535,6.876 0,0 -0.982,3.409 -1.837,6.726 -0.85,3.3 -1.719,4.781 -4.164,9.177"
       clip-path="url(#SVGID_8_)"
       transform="matrix(1.2280412,0,0,1.2280412,-299.40015,-725.43464)" /><path
       style="fill:#eeda00"
       inkscape:connector-curvature="0"
       id="path75"
       d="m 398.102,686.366 c -5.146,6.503 -14.934,12.867 -20.697,14.948 -5.754,2.082 -6.745,3.549 -8.208,5.618 -1.464,2.09 -3.681,4.049 -4.659,4.417 0,0 8.949,0.982 17.886,-4.417 8.938,-5.381 14.57,-9.544 17.257,-16.035 2.699,-6.485 5.152,-10.399 6.984,-11.28 -0.001,0 -3.428,0.26 -8.563,6.749"
       clip-path="url(#SVGID_8_)"
       transform="matrix(1.2280412,0,0,1.2280412,-299.40015,-725.43464)" /><path
       style="fill:#eeda00"
       inkscape:connector-curvature="0"
       id="path77"
       d="m 382.904,712.936 c 1.758,-1.809 6.976,-8.439 8.826,-9.54 0,0 -7.354,4.769 -13.222,6.618 -8.454,3.049 -12.616,2.445 -13.712,3.178 -1.104,0.735 -3.078,4.034 -4.43,5.271 -1.329,1.209 -4.033,3.045 -5.133,3.409 0,0 3.804,1.972 12.739,-1.213 8.937,-3.187 11.759,-4.397 14.932,-7.723"
       clip-path="url(#SVGID_8_)"
       transform="matrix(1.2280412,0,0,1.2280412,-299.40015,-725.43464)" /><path
       style="fill:#eeda00"
       inkscape:connector-curvature="0"
       id="path79"
       d="m 374.223,691.626 c 0,0 -9.685,10.061 -16.656,11.283 0,0 21.429,-9.786 20.569,-26.455 0,0 -7.713,16.039 -20.079,18.361 0,0 16.166,-6.472 21.176,-24.006 2.453,-10.026 -0.851,-16.762 -0.851,-16.762 0,0 -0.481,10.64 -11.762,24.115 -13.313,16.312 -23.104,12.061 -28.101,22.048 0,0 -1.603,3.193 -0.679,7.576 0.898,4.369 5.229,11.481 0.452,12.047 -4.492,0.446 -8.756,-4.597 -9.672,-8.869 0,0 -1.074,4.211 0.977,9.264 2.034,5.066 9.256,7.568 16.364,4.719 7.117,-2.84 12.348,-5.445 16.6,-11.238 0,0 -5.978,4.254 -9.772,3.886 0,0 12.99,-4.286 16.408,-14.321 0,0 -7.359,6.236 -13.34,7.209 0,-10e-4 16.284,-6.487 18.366,-18.857"
       clip-path="url(#SVGID_8_)"
       transform="matrix(1.2280412,0,0,1.2280412,-299.40015,-725.43464)" /><path
       style="fill:#eeda00"
       inkscape:connector-curvature="0"
       id="path81"
       d="m 373.894,737.113 -0.053,0.074 0.053,-0.074 z"
       clip-path="url(#SVGID_8_)"
       transform="matrix(1.2280412,0,0,1.2280412,-299.40015,-725.43464)" /><path
       style="fill:#eeda00"
       inkscape:connector-curvature="0"
       id="path83"
       d="m 397.243,716.113 c -2.45,3.326 -6.004,3.558 -6.004,3.558 6.241,-2.805 5.013,-8.066 5.013,-8.066 -2.199,3.427 -4.277,2.686 -4.277,2.686 6.486,-3.545 3.182,-9.917 3.182,-9.917 -6.125,2.086 -4.417,9.426 -4.417,9.426 -2.69,-1.718 -0.859,-4.407 -0.859,-4.407 -4.89,2.563 -2.322,9.803 -2.322,9.803 -2.199,-0.132 -1.464,-4.409 -1.464,-4.409 -4.285,3.542 -2.689,10.649 -2.689,10.649 -1.847,-0.381 -1.481,-4.653 -1.481,-4.653 -4.154,2.571 -3.414,8.579 -3.414,8.579 -1.236,-0.499 -0.863,-3.79 -0.863,-3.79 -2.945,1.578 -3.423,4.755 -3.183,7.581 0.21,2.432 -0.402,3.66 -0.568,3.962 0.211,-0.245 1.394,-1.101 7.914,-1.508 7.722,-0.504 7.954,-4.654 7.954,-4.654 -5.009,2.323 -7.464,0.729 -7.464,0.729 12.857,-3.433 12.612,-8.204 12.612,-8.204 -5.031,3.555 -7.594,2.567 -7.594,2.567 10.528,-3.183 9.924,-9.932 9.924,-9.932"
       clip-path="url(#SVGID_8_)"
       transform="matrix(1.2280412,0,0,1.2280412,-299.40015,-725.43464)" /><path
       style="fill:#eeda00"
       inkscape:connector-curvature="0"
       id="path85"
       d="m 373.236,724.694 c -4.54,1.595 -4.167,5.521 -4.907,9.188 -0.72,3.676 -2.19,7.346 -2.19,7.346 2.322,-0.114 4.774,-1.228 4.774,-1.228 1.342,-1.346 1.71,-4.041 0.737,-8.445 -0.986,-4.407 1.586,-6.861 1.586,-6.861"
       clip-path="url(#SVGID_8_)"
       transform="matrix(1.2280412,0,0,1.2280412,-299.40015,-725.43464)" /><path
       style="fill:#eeda00"
       inkscape:connector-curvature="0"
       id="path87"
       d="m 376.051,738.542 c -2.691,1.337 -6.731,4.281 -14.936,3.541 -8.212,-0.736 -14.085,3.559 -13.103,9.794 0,0 2.563,-4.404 5.994,-5.26 3.44,-0.845 10.53,1.224 15.681,-1.708 5.136,-2.927 8.08,-6.367 10.535,-6.254 2.444,0.137 0.481,2.091 0,2.458 -1.451,1.065 -1.228,3.306 -1.228,3.306 0,0 3.06,-2.081 4.158,-2.573 1.104,-0.499 5.027,-0.622 3.678,-3.432 -1.35,-2.809 -8.081,-1.226 -10.779,0.128"
       clip-path="url(#SVGID_8_)"
       transform="matrix(1.2280412,0,0,1.2280412,-299.40015,-725.43464)" /><path
       style="fill:#eeda00"
       inkscape:connector-curvature="0"
       id="path89"
       d="m 369.928,745.887 c -2.318,1.832 -6.366,1.346 -6.366,1.346 -3.796,7.476 -16.285,9.193 -16.285,9.193 18.501,0.723 22.651,-10.539 22.651,-10.539"
       clip-path="url(#SVGID_8_)"
       transform="matrix(1.2280412,0,0,1.2280412,-299.40015,-725.43464)" /><path
       style="fill:#eeda00"
       inkscape:connector-curvature="0"
       id="path91"
       d="m 371.028,751.999 c -7.957,8.944 -21.185,3.805 -25.951,11.881 0,0 4.398,-2.559 10.271,-2.69 5.89,-0.118 12.98,-0.982 17.397,-6.007 4.404,-5.019 6.613,-7.205 9.185,-7.343 10e-4,0 -4.285,-2.447 -10.902,4.159"
       clip-path="url(#SVGID_8_)"
       transform="matrix(1.2280412,0,0,1.2280412,-299.40015,-725.43464)" /><path
       style="fill:#eeda00"
       inkscape:connector-curvature="0"
       id="path93"
       d="m 330.387,767.916 c -2.463,-0.122 -3.567,-1.109 -5.153,-1.855 -1.595,0.746 -2.691,1.733 -5.144,1.855 -2.446,0.135 -3.792,0.99 -4.155,2.34 0,0 6.608,-0.495 9.299,6.736 2.7,-7.231 9.308,-6.736 9.308,-6.736 -0.368,-1.35 -1.718,-2.205 -4.155,-2.34"
       clip-path="url(#SVGID_8_)"
       transform="matrix(1.2280412,0,0,1.2280412,-299.40015,-725.43464)" /><path
       style="fill:#eeda00"
       inkscape:connector-curvature="0"
       id="path95"
       d="m 328.66,753.73 c 2.568,-2.094 4.777,-3.567 1.841,-4.916 -2.937,-1.342 -3.554,-1.411 -5.268,-1.411 -1.709,0 -2.331,0.069 -5.258,1.411 -2.945,1.349 -0.745,2.822 1.832,4.916 2.576,2.078 3.426,5.429 3.426,5.429 0,0 0.859,-3.35 3.427,-5.429"
       clip-path="url(#SVGID_8_)"
       transform="matrix(1.2280412,0,0,1.2280412,-299.40015,-725.43464)" /><path
       style="fill:#eeda00"
       inkscape:connector-curvature="0"
       id="path97"
       d="m 339.563,756.426 c 6.854,-0.99 6.372,-4.29 6.372,-4.29 0,0 -5.276,-5.027 -11.885,-1.354 -9.063,5.645 -8.44,12.985 -8.44,12.985 4.401,-4.795 7.099,-6.382 13.953,-7.341"
       clip-path="url(#SVGID_8_)"
       transform="matrix(1.2280412,0,0,1.2280412,-299.40015,-725.43464)" /><path
       style="fill:#eeda00"
       inkscape:connector-curvature="0"
       id="path99"
       d="m 348.013,758.876 c 0,0 -2.078,-2.832 -8.449,-1.728 -6.372,1.096 -10.658,2.805 -13.348,8.568 0,0 3.672,1.84 8.203,0.854 4.532,-0.973 7.717,-2.304 9.676,-5.622 1.718,-2.704 3.918,-2.072 3.918,-2.072"
       clip-path="url(#SVGID_8_)"
       transform="matrix(1.2280412,0,0,1.2280412,-299.40015,-725.43464)" /><path
       style="fill:#eeda00"
       inkscape:connector-curvature="0"
       id="path101"
       d="m 354.375,722.635 c 0,0 -9.098,4.706 -14.597,4.474 -5.526,-0.224 -8.585,-1.99 -10.136,-4.601 0,0 0.744,5.46 8.199,7.839 7.436,2.411 22.111,-2.432 29.383,-7.949 0.001,-10e-4 -5.219,2.322 -12.849,0.237"
       clip-path="url(#SVGID_8_)"
       transform="matrix(1.2280412,0,0,1.2280412,-299.40015,-725.43464)" /><path
       style="fill:#eeda00"
       inkscape:connector-curvature="0"
       id="path103"
       d="m 327.688,679.486 c 2.253,2.371 -2.594,4.299 -3.347,0.439 -0.544,-2.161 -2.148,-2.49 -2.148,-2.49 0,0 3.224,-0.31 5.495,2.051 m -11.228,-0.065 c 5.119,3.693 1.025,8.813 6.595,10.338 5.561,1.547 2.152,6.14 1.415,7.393 -0.744,1.249 -7.844,13.353 -9.552,16.039 -1.701,2.656 -9.493,14.663 0.061,26.543 9.544,11.88 39.168,8.73 46.697,-13.11 0,0 -4.09,3.658 -17.003,5.933 0,0 -2.905,4.404 -8.923,1.7 -6.029,-2.678 -8.063,-12.156 -8.726,-22.042 -0.639,-9.904 3.984,-15.4 5.606,-20.57 1.607,-5.15 3.006,-10.43 -3.989,-14.313 -4.083,-2.144 -2.033,-5.808 0.434,-2.581 2.468,3.233 4.52,6.564 11.833,5.714 4.951,-0.758 4.519,-7.318 4.519,-7.318 0,0 -3.77,5.157 -9.467,2.261 -5.697,-2.904 -9.026,-10.062 -16.832,-4.921 0,0 -0.968,-3.864 1.074,-5.053 2.046,-1.201 6.257,-0.232 10.578,3.064 4.33,3.295 11.03,2.839 12.962,1.703 1.934,-1.135 6.425,-5.465 4.952,-9.045 0,0 -4.833,3.19 -9.044,2.963 -4.199,-0.224 -8.524,-3.305 -11.591,-6.14 -3.072,-2.848 -10.636,-0.333 -12.293,2.835 -1.647,3.195 -1.7,8.546 0.46,11.661 0,0 -7.734,0.452 -9.206,7.336 0.001,0 5.979,-2.896 9.44,-0.39"
       clip-path="url(#SVGID_8_)"
       transform="matrix(1.2280412,0,0,1.2280412,-299.40015,-725.43464)" /></g><g
     id="g4270"><path
       style="fill:#000095;fill-opacity:1"
       inkscape:connector-curvature="0"
       id="path105"
       d="m 352.653,617.539 c 0,14.809 -12.003,26.812 -26.806,26.812 -14.808,0 -26.802,-12.003 -26.802,-26.812 0,-14.812 11.994,-26.814 26.802,-26.814 14.803,0 26.806,12.003 26.806,26.814"
       clip-path="url(#SVGID_8_)"
       transform="matrix(1.2284547,0,0,1.2280412,-299.52382,-725.43464)" /><polygon
       style="fill:#ffffff"
       id="polygon107"
       points="325.487,635.547 327.775,625.972 334.673,633.161 331.789,623.731 341.273,626.602 334.094,619.801 343.719,617.525 334.077,615.212 341.255,608.438 331.754,611.313 334.629,601.891 327.951,609.151 325.698,599.532 323.507,609.147 316.636,601.979 319.572,611.408 310.159,608.464 317.341,615.238 307.709,617.525 317.319,619.752 310.146,626.589 319.537,623.636 316.583,633.057 323.341,625.887 "
       clip-path="url(#SVGID_8_)"
       transform="matrix(1.2282144,0,0,1.2280412,-299.27971,-725.43464)" /><path
       style="fill:#000095;fill-opacity:1"
       inkscape:connector-curvature="0"
       id="path109"
       d="m 325.715,626.212 c -4.794,0 -8.672,-3.874 -8.672,-8.669 0,-4.798 3.878,-8.672 8.672,-8.672 4.79,0 8.667,3.874 8.667,8.672 10e-4,4.795 -3.877,8.669 -8.667,8.669 m 0,-18.629 c -5.512,0 -9.969,4.452 -9.969,9.96 0,5.492 4.457,9.953 9.969,9.953 5.496,0 9.957,-4.461 9.957,-9.953 0,-5.508 -4.461,-9.96 -9.957,-9.96"
       clip-path="url(#SVGID_8_)"
       transform="matrix(1.2272408,0,0,1.2280412,-298.95646,-725.43464)" /></g></g>
</svg>